<svg width="269" height="72" viewBox="0 0 269 72" fill="none" xmlns="http://www.w3.org/2000/svg">
<path d="M80.2388 8.23633L60.416 50.0183L80.6367 50.0183L100.51 8.23633L80.2388 8.23633Z" fill="#FA0339"/>
<path d="M55.0488 8.23633L45.3337 28.7107L35.6186 8.23633L15.3498 8.23633L17.4194 12.5865L0 50.0183L20.2207 50.0183L27.7514 34.3134L35.2233 50.0183H35.226L55.4441 50.0183H55.4467L75.3203 8.23633L55.0488 8.23633Z" fill="#FA0339"/>
<path d="M268.038 15.8251L247.022 0L242.851 8.69501L204.345 8.69501L189.369 8.69501H189.223C187.826 8.69501 186.485 9.05819 185.31 9.70711C183.679 10.5723 182.33 11.953 181.518 13.6941L177.424 22.9526H177.427L171.178 36.3636L170.134 38.5C167.461 43.9637 171.44 50.3355 177.521 50.3355L211.999 50.3355C215.366 50.3355 218.427 48.386 219.85 45.3364L224.173 36.2995H224.115L229.95 24.4427L209.267 24.4427L203.64 36.2995H190.763L197.33 22.9526L236.006 22.9526L231.87 31.5728L268.038 15.8251Z" fill="#FA0339"/>
<path d="M130.223 22.4927C134.394 21.8437 136.309 21.6274 138.216 17.6351L142.705 8.23242L105.569 8.23242L98.9118 22.4927L106.133 22.4927L102.21 30.7604L93.0742 50.0171L113.295 50.0171L124.065 27.3743C124.062 27.3743 126.049 23.1443 130.223 22.4927Z" fill="#FA0339"/>
<path d="M168.938 32.2671L170.671 28.6353L176.068 17.1763C179.553 8.23298 171.435 8.1582 171.435 8.1582H167.96L147.497 8.1582L141.977 19.7106H151.705C151.705 19.7106 153.97 19.8975 153.818 21.8229C153.663 23.7483 152.018 23.9086 152.018 23.9086L145.758 24.1649C145.758 24.1649 142.703 24.0661 135.717 24.7097C130.013 25.5589 126.739 31.984 126.739 31.984L117.887 49.9429L138.107 49.9429L142.687 40.0114C142.698 39.9901 142.709 39.9687 142.717 39.9473C143.237 38.6869 143.526 38.1848 144.217 38.1848C144.834 38.1848 145.403 39.9714 145.403 39.9714L148.624 49.9429L168.868 49.9429L163.728 37.6614C166.868 36.3422 168.938 32.2671 168.938 32.2671Z" fill="#FA0339"/>
<path d="M235.166 66.7963C234.259 66.7963 233.394 66.7963 232.499 66.7963C232.669 66.2832 232.834 65.7915 232.993 65.2981C233.029 65.1868 233.111 65.1966 233.197 65.1966C235.166 65.1974 237.136 65.199 239.106 65.1941C239.289 65.1933 239.278 65.2604 239.233 65.3954C238.61 67.2545 237.999 69.1177 237.368 70.9735C237.159 71.5855 236.606 71.7549 236.047 71.876C235.647 71.9627 235.238 71.9906 234.828 71.9906C232.325 71.9914 229.823 71.9922 227.321 71.9897C226.883 71.9889 226.446 71.9644 226.026 71.8269C225.5 71.6551 225.367 71.394 225.54 70.872C226.691 67.4116 227.848 63.9537 228.989 60.49C229.175 59.9262 229.571 59.6455 230.1 59.4958C230.578 59.36 231.072 59.3191 231.568 59.3182C234.07 59.3158 236.572 59.3158 239.074 59.3182C239.522 59.3191 239.969 59.3477 240.398 59.4876C240.919 59.6578 241.052 59.9254 240.882 60.4417C240.603 61.287 240.317 62.1306 240.046 62.9783C239.99 63.1518 239.911 63.2066 239.727 63.205C238.699 63.1943 237.671 63.191 236.644 63.2058C236.377 63.2099 236.38 63.1305 236.454 62.921C236.657 62.3491 236.837 61.7689 237.036 61.1961C237.091 61.039 237.113 60.967 236.894 60.9687C235.467 60.9777 234.04 60.976 232.613 60.9695C232.46 60.9687 232.4 61.0219 232.355 61.1577C231.362 64.1525 230.367 67.1473 229.364 70.1388C229.302 70.3254 229.352 70.3385 229.513 70.3377C230.94 70.3336 232.367 70.3352 233.794 70.3352C233.897 70.3352 233.99 70.3483 234.036 70.2084C234.401 69.0833 234.778 67.9607 235.166 66.7963Z" fill="#132239"/>
<path d="M247.243 59.3162C246.017 62.9958 244.799 66.6518 243.572 70.3348C244.373 70.3348 245.142 70.3348 245.91 70.3348C246.662 70.3348 247.413 70.3266 248.165 70.3405C248.361 70.3438 248.438 70.2857 248.499 70.0999C249.655 66.6068 250.822 63.1161 251.977 59.623C252.054 59.3898 252.149 59.3039 252.409 59.3088C253.482 59.3276 254.557 59.317 255.665 59.317C255.444 59.9781 255.231 60.6139 255.019 61.2497C253.966 64.4147 252.905 67.5764 251.867 70.7464C251.669 71.351 251.27 71.6677 250.692 71.8207C250.221 71.9459 249.737 71.9893 249.252 71.9893C246.702 71.9926 244.152 71.9926 241.602 71.9893C241.154 71.9885 240.707 71.9598 240.279 71.8166C239.776 71.6489 239.645 71.3805 239.814 70.8732C241.072 67.0888 242.332 63.3051 243.59 59.5215C243.629 59.4045 243.654 59.3096 243.828 59.3112C244.95 59.3219 246.073 59.3162 247.243 59.3162Z" fill="#132239"/>
<path d="M210.576 71.9921C211.679 70.4153 212.75 68.8827 213.821 67.3509C215.656 64.7276 217.491 62.1051 219.321 59.4793C219.429 59.3247 219.534 59.2535 219.732 59.2559C220.816 59.2674 221.9 59.2657 222.984 59.2567C223.18 59.2551 223.262 59.2805 223.267 59.5104C223.357 63.0559 223.458 66.6014 223.557 70.1469C223.573 70.6886 223.586 71.2303 223.613 71.7719C223.621 71.9372 223.591 72.0002 223.403 71.9978C222.357 71.9871 221.311 71.9896 220.264 71.9961C220.102 71.997 220.056 71.9536 220.063 71.7916C220.092 71.1362 220.101 70.4799 220.136 69.8245C220.146 69.6314 220.091 69.5905 219.907 69.5913C218.556 69.5987 217.206 69.5987 215.855 69.5913C215.689 69.5905 215.602 69.651 215.519 69.7836C215.099 70.4611 214.669 71.1329 214.242 71.8055C214.184 71.8971 214.145 71.997 213.992 71.9961C212.871 71.9888 211.75 71.9921 210.576 71.9921ZM216.67 67.9384C217.829 67.9384 218.94 67.9351 220.05 67.9417C220.232 67.9425 220.187 67.8222 220.189 67.7306C220.243 65.9623 220.295 64.1941 220.345 62.4267C220.347 62.38 220.386 62.3129 220.295 62.2826C219.098 64.1507 217.9 66.0204 216.67 67.9384Z" fill="#132239"/>
<path d="M210.031 70.3275C209.854 70.8528 209.683 71.3348 209.534 71.8225C209.491 71.9632 209.426 72.0074 209.294 71.9919C209.267 71.9886 209.237 71.991 209.209 71.991C206.078 71.991 202.947 71.9886 199.817 71.996C199.571 71.9968 199.543 71.946 199.619 71.7186C200.979 67.6567 202.331 63.5917 203.684 59.5266C203.727 59.3948 203.766 59.3097 203.947 59.3106C207.125 59.3187 210.303 59.3163 213.482 59.3171C213.509 59.3171 213.538 59.3236 213.599 59.331C213.428 59.849 213.261 60.3604 213.092 60.871C213.04 61.0305 212.904 60.9708 212.802 60.9708C210.889 60.9741 208.976 60.9773 207.064 60.9675C206.846 60.9667 206.761 61.0273 206.694 61.2375C206.349 62.3209 205.981 63.3977 205.622 64.477C205.602 64.5384 205.555 64.5948 205.589 64.6799C207.361 64.6799 209.138 64.6799 210.949 64.6799C210.771 65.211 210.596 65.7191 210.434 66.2313C210.379 66.4056 210.249 66.3353 210.153 66.3361C208.535 66.341 206.917 66.3443 205.3 66.3336C205.077 66.332 204.971 66.3844 204.899 66.6086C204.517 67.7999 204.116 68.9856 203.721 70.1729C203.707 70.2162 203.695 70.2613 203.676 70.3267C205.794 70.3275 207.893 70.3275 210.031 70.3275Z" fill="#132239"/>
<path d="M259.847 64.6865C261.665 64.6865 263.442 64.6865 265.246 64.6865C265.071 65.2093 264.894 65.7085 264.739 66.2142C264.687 66.3852 264.572 66.3377 264.471 66.3377C263.148 66.3402 261.825 66.3394 260.503 66.3394C260.16 66.3394 259.818 66.3434 259.475 66.3369C259.358 66.3344 259.285 66.3557 259.244 66.4834C258.829 67.7443 258.408 69.0028 257.991 70.2621C257.986 70.2784 257.995 70.2989 257.999 70.3316C260.099 70.3316 262.199 70.3316 264.326 70.3316C264.149 70.8627 263.975 71.3716 263.813 71.8838C263.764 72.0385 263.649 71.9869 263.556 71.9878C262.376 71.991 261.196 71.9902 260.016 71.9902C258.046 71.9902 256.077 71.9869 254.107 71.9951C253.885 71.9959 253.836 71.9689 253.913 71.7366C255.277 67.6649 256.63 63.5908 257.985 59.5167C258.025 59.3965 258.056 59.3105 258.226 59.3105C261.414 59.3179 264.601 59.3163 267.789 59.3171C267.816 59.3171 267.842 59.3277 267.895 59.3392C267.724 59.858 267.558 60.3694 267.386 60.8791C267.334 61.0346 267.193 60.97 267.091 60.97C265.178 60.9732 263.265 60.9757 261.353 60.9675C261.152 60.9667 261.063 61.0207 261 61.2187C260.63 62.3643 260.243 63.5025 259.847 64.6865Z" fill="#132239"/>
<path d="M192.604 70.2829C194.56 70.2829 196.487 70.2829 198.442 70.2829C198.261 70.8254 198.082 71.3434 197.92 71.8654C197.863 72.0495 197.729 71.9898 197.619 71.9898C195.603 71.9931 193.587 71.9922 191.57 71.9922C190.544 71.9922 189.518 71.9922 188.457 71.9922C188.67 71.3483 188.872 70.7288 189.078 70.1111C190.249 66.5975 191.423 63.0855 192.589 59.5703C192.652 59.3797 192.727 59.3101 192.936 59.3126C194.029 59.3248 195.123 59.3183 196.256 59.3183C195.037 62.9775 193.825 66.6179 192.604 70.2829Z" fill="#132239"/>
<path d="M187.07 63.9297L80.1738 64.4529L185.724 67.2116L187.07 63.9297Z" fill="#132239"/>
</svg> 
